<?xml version="1.0" standalone="no"?><!DOCTYPE svg PUBLIC "-//W3C//DTD SVG 1.1//EN" "http://www.w3.org/Graphics/SVG/1.1/DTD/svg11.dtd"><svg t="1739705275997" class="icon" viewBox="0 0 1024 1024" version="1.1" xmlns="http://www.w3.org/2000/svg" p-id="18191" xmlns:xlink="http://www.w3.org/1999/xlink" width="200" height="200"><path d="M179.091064 7.276936H833.579574c96.430298 0 172.206298 75.362043 172.206298 171.269447v650.828255c0 95.885617-75.776 171.24766-172.206298 171.24766H179.091064c-96.452085 0-172.228085-75.362043-172.228085-171.24766V178.546383C6.884766 82.638979 82.660766 7.276936 179.112851 7.276936z" fill="#FFFFFF" p-id="18192"></path><path d="M179.091064 14.139915C89.545532 14.139915 13.791319 89.48017 13.791319 178.546383v650.806468c0 89.066213 75.776 164.406468 165.343319 164.406468h654.444936c89.545532 0 165.321532-75.340255 165.321532-164.406468V178.56817c0-89.066213-75.776-164.428255-165.321532-164.428255H179.091064zM833.579574 1007.485277H179.091064C82.660766 1007.485277 0 925.260255 0 829.352851V178.56817C0 82.617191 82.682553 0.435745 179.091064 0.435745H833.579574c96.430298 0 179.091064 82.203234 179.091064 178.110638v650.806468c0 95.907404-82.660766 178.132426-179.091064 178.132426z" fill="#C0BFBE" p-id="18193"></path><path d="M172.206298 192.250553c0-13.70417 6.906553-20.567149 20.697872-20.567149 13.747745 0 20.632511 6.862979 20.632511 20.567149s-6.884766 20.545362-20.654298 20.545362c-13.769532 0-20.676085-6.841191-20.676085-20.545362z m34.445617 95.907404l68.891234-95.907404 27.560851 34.249532 34.445617-61.657872 62.006468 109.589787V158.022809h-254.910638v164.406468h254.910638v-34.249532H206.651915z m475.332085-130.156936h186.019404V185.409362h-186.019404V158.001021z m0 54.794894h186.019404v27.40834h-186.019404V212.795915z m0-109.611575h186.019404v27.408341h-186.019404V103.18434zM427.095149 158.001021h220.443234V185.409362H427.095149V158.001021z m0 54.794894h220.443234v27.40834H427.095149V212.795915z m0-109.611575h220.443234v27.408341H427.095149V103.18434zM144.667234 822.51166h502.892936v27.40834H144.667234v-27.40834z m0 54.794893h502.892936v27.408341H144.667234v-27.408341z m0-109.589787h502.892936v27.386553H144.667234v-27.386553z m537.316766 54.794894h186.019404v27.40834h-186.019404v-27.40834z m0 54.794893h186.019404v27.408341h-186.019404v-27.408341z m0-109.589787h186.019404v27.386553h-186.019404v-27.386553zM158.436766 130.592681h6.884766V123.751489h-13.769532v6.841192h6.906553z m0-13.70417s6.884766 0 6.884766-6.841192h-13.769532v6.841192h6.906553z m0-13.704171h6.884766s0 6.841191 6.884766 6.841192c0 6.862979 0 6.862979-6.884766 6.862979 0 0 0 6.841191 6.884766 6.841191v6.862979c0 6.841191-6.884766 6.841191-6.884766 6.841191H144.667234V103.18434h13.791319z m27.560851 41.112511h-13.791319 6.906553v-6.862979l-6.906553-27.386553h6.906553l6.884766 20.545362 6.884766-20.545362h6.884766l-13.769532 34.249532zM220.443234 110.025532v6.862979h-6.884766v13.725957h6.884766v6.819404h-13.791319v-20.545361H199.788936v-6.841192h6.884766l6.906553-6.862979v6.862979h6.884766z m41.330383 20.567149h6.884766s6.884766 0 6.884766-6.841192v-6.862978l-6.884766-6.841192H254.910638v20.545362h6.884766z m6.884766-27.408341c6.884766 0 6.884766 0 6.884766 6.841192h6.906553v20.567149h-6.906553v6.841191h-27.539064V103.18434h20.654298z m89.567319 27.408341c-6.884766 0-6.884766-6.841191-6.884766-6.841192s0-6.862979 6.884766-6.862978v6.862978h6.884766c0-6.862979 0-13.725957-6.884766-13.725957-13.791319 0-13.791319 13.725957-13.791319 13.725957s0 13.682383 13.791319 13.682383c6.884766 0 6.884766-6.841191 6.884766-6.841191h-6.884766z m27.539064-13.70417l6.884766 6.862978h-13.769532s0-6.862979 6.884766-6.862978z m6.884766 6.841191h6.884766s0-13.70417-13.769532-13.70417-13.769532 13.725957-13.769532 13.725957 0 13.682383 13.769532 13.682383c6.884766 0 6.884766-6.841191 13.769532-6.841191h-13.769532c-6.884766 0-6.884766 0-6.884766-6.862979h13.769532z m-158.436766-6.841191l6.906553 6.862978h-13.791319s0-6.862979 6.884766-6.862978z m6.906553 6.841191h6.884766s0-13.70417-13.791319-13.70417c-13.769532 0-13.769532 13.725957-13.769532 13.725957s0 13.682383 13.769532 13.682383c6.906553 0 6.906553-6.841191 13.791319-6.841191h-13.769532c-6.884766 0-6.884766 0-6.884766-6.862979h13.769532z m55.099915 6.862979c-6.884766 0-6.884766-6.841191-6.884766-6.841192s0-6.862979 6.884766-6.862978 6.884766 6.862979 6.884766 6.862978 0 6.841191-6.884766 6.841192z m13.769532-20.545362h-13.769532c-13.769532 0-13.769532 13.70417-13.769532 13.70417s0 13.682383 13.769532 13.682383h13.769532V110.047319z m27.560851 6.841192c0-6.841191-6.884766-6.841191-6.884766-6.841192-6.884766 0-6.884766 6.841191-6.884766 6.841192l-6.884766-6.841192v27.386553h6.884766V123.751489c0-6.862979 6.884766-6.862979 6.884766-6.862978v20.545361h6.884766v-20.545361z" fill="#C0BFBE" p-id="18194"></path><path d="M0 219.637106v609.715745s0 6.841191 6.884766 13.725958l1005.785872-54.838469V178.546383s0-6.841191-6.884766-13.70417L0 219.637106z" fill="#E81919" p-id="18195"></path><path d="M902.427234 569.038979v-47.953702l-151.530213 6.841191v-20.545362h-68.913021v27.408341l-151.552 6.841191v47.931915l151.552-6.819404v102.748596l68.913021-6.841192v-102.770383z" fill="#FFFFFF" p-id="18196"></path><path d="M530.432 479.972766v47.953702h48.236936l137.782468-68.499064 130.897702 47.931915h55.099915v-47.931915H868.003404l-89.567319-27.40834L895.542468 370.382979v-82.203234l-68.891234 6.841191-172.206298 6.862979-55.121702-27.408341-75.776 116.474554 62.006468 20.545361 41.330383-61.657872 199.788936-6.862979v6.862979l-110.243404 54.794894L626.905872 370.382979 599.323234 418.314894l48.236936 20.545361-82.660766 41.112511h-34.467404z m330.686638 102.770383l-68.913021 6.841191 48.236936 89.066213 75.776-6.841191-55.121702-89.066213z m-330.686638 109.589787h68.891234l48.236936-95.907404-68.891234 6.862979-48.236936 89.066212z m-172.206298-102.748596l55.121702 109.611575h82.638979l-61.984681-116.452766-75.776 6.841191z m-75.776-82.203234l-62.006468-75.362042-82.660766 6.841191 61.984681 68.520851h82.682553z m0-95.907404l-62.006468-68.499064H137.782468L199.767149 418.314894l82.682553-6.841192z" fill="#FFFFFF" p-id="18197"></path><path d="M351.340936 575.88017l130.875915-6.841191v-47.953702l-89.545532 6.841191v-212.36017l-68.891234 6.841191v205.518979l-213.558468 13.725958v47.931914l144.667234-6.841191-62.006468 82.203234-82.660766 6.862979v47.931915l137.782468-6.841192z" fill="#FFFFFF" p-id="18198"></path></svg>